<svg id="Calque_1" data-name="Calque 1" xmlns="http://www.w3.org/2000/svg" xmlns:xlink="http://www.w3.org/1999/xlink" viewBox="0 0 28.22 32"><defs><style>.cls-1{fill:#3f46f2;}.cls-2{fill:#4a52e6;}.cls-3{fill:#222f87;}.cls-4{fill:#2832a2;}.cls-5{fill:url(#Dégradé_sans_nom_56);}.cls-6{fill:#233459;}.cls-7{fill:#3b9097;}.cls-8{fill:url(#Dégradé_sans_nom_272);}</style><radialGradient id="Dégradé_sans_nom_56" cx="6.7" cy="16.4" r="1.94" gradientUnits="userSpaceOnUse"><stop offset="0" stop-color="#8b9af6"/><stop offset="0.14" stop-color="#7883ef"/><stop offset="0.37" stop-color="#5e65e6"/><stop offset="0.59" stop-color="#4b4fdf"/><stop offset="0.81" stop-color="#4041db"/><stop offset="1" stop-color="#3c3dda"/></radialGradient><linearGradient id="Dégradé_sans_nom_272" y1="16" x2="25.66" y2="16" gradientUnits="userSpaceOnUse"><stop offset="0" stop-color="#8b5cf6"/><stop offset="0.56" stop-color="#6040f3"/><stop offset="0.78" stop-color="#512af1"/><stop offset="1" stop-color="#518af1"/></linearGradient></defs><rect class="cls-1" x="5.89" y="12.34" width="8.65" height="1.05" transform="translate(-5.85 9.42) rotate(-39.44)"/><rect class="cls-2" x="5.53" y="18.97" width="8.65" height="1.05" transform="translate(14.63 -1.82) rotate(39.44)"/><circle class="cls-3" cx="13.89" cy="22.58" r="1.94"/><circle class="cls-4" cx="13.89" cy="9.9" r="1.94"/><circle class="cls-5" cx="6.7" cy="16.4" r="1.94"/><circle class="cls-6" cx="18.03" cy="16.4" r="1.94"/><path class="cls-7" d="M28.08,12.26,27.83,12a.48.48,0,0,0-.7,0l-6,6-2.54-2.18a.49.49,0,0,0-.69.05l-.24.27a.5.5,0,0,0,.06.7l3.16,2.7a.49.49,0,0,0,.69-.06l.15-.18,6.4-6.4A.49.49,0,0,0,28.08,12.26Z"/><path class="cls-8" d="M23.27,21.11v2.05a1.68,1.68,0,0,1-.85,1.47l-7.66,4.46a1.7,1.7,0,0,1-1.74,0l-9.81-6a1.67,1.67,0,0,1-.82-1.45V10.17a1.7,1.7,0,0,1,.84-1.46L13,2.92a1.68,1.68,0,0,1,1.73,0l7.69,4.54a1.73,1.73,0,0,1,.83,1.47v4.8L25.12,12a1.69,1.69,0,0,0,.54-1.25V7.36a1.69,1.69,0,0,0-.85-1.47L15,.23a1.65,1.65,0,0,0-1.69,0L.85,7.38A1.68,1.68,0,0,0,0,8.85V22.9a1.71,1.71,0,0,0,.83,1.46l12.45,7.4a1.69,1.69,0,0,0,1.7,0l9.82-5.56a1.69,1.69,0,0,0,.86-1.47v-6.6l-1.84,1.71A1.7,1.7,0,0,0,23.27,21.11Z"/></svg>