<svg id="Calque_1" data-name="Calque 1" xmlns="http://www.w3.org/2000/svg" xmlns:xlink="http://www.w3.org/1999/xlink" viewBox="0 0 264.98 51.52"><defs><style>.cls-1{stroke:#000;stroke-linecap:round;stroke-linejoin:round;stroke-width:0.5px;}.cls-2{font-size:28.88px;font-family:Poppins-Regular, Poppins;}.cls-3{font-size:31.88px;fill:#4d52f5;font-family:Poppins-Bold, Poppins;font-weight:700;}.cls-4{fill:#3f46f2;}.cls-5{fill:#4a52e6;}.cls-6{fill:#222f87;}.cls-7{fill:#2832a2;}.cls-8{fill:url(#Dégradé_sans_nom_56);}.cls-9{fill:#233459;}.cls-10{fill:#3b9097;}.cls-11{fill:url(#Dégradé_sans_nom_272);}</style><radialGradient id="Dégradé_sans_nom_56" cx="7.68" cy="18.8" r="2.23" gradientUnits="userSpaceOnUse"><stop offset="0" stop-color="#8b9af6"/><stop offset="0.14" stop-color="#7883ef"/><stop offset="0.37" stop-color="#5e65e6"/><stop offset="0.59" stop-color="#4b4fdf"/><stop offset="0.81" stop-color="#4041db"/><stop offset="1" stop-color="#3c3dda"/></radialGradient><linearGradient id="Dégradé_sans_nom_272" y1="18.34" x2="29.42" y2="18.34" gradientUnits="userSpaceOnUse"><stop offset="0" stop-color="#8b5cf6"/><stop offset="0.56" stop-color="#6040f3"/><stop offset="0.78" stop-color="#512af1"/><stop offset="1" stop-color="#518af1"/></linearGradient></defs><line class="cls-1" x1="38.01" y1="7.18" x2="38.01" y2="29.75"/><text class="cls-2" transform="translate(45.06 29.54)">Cogni</text><text class="cls-3" transform="translate(130.02 29.59)">DQ</text><rect class="cls-4" x="6.75" y="14.15" width="9.92" height="1.2" transform="translate(-6.71 10.79) rotate(-39.44)"/><rect class="cls-5" x="6.34" y="21.75" width="9.92" height="1.2" transform="translate(16.77 -2.09) rotate(39.44)"/><circle class="cls-6" cx="15.92" cy="25.88" r="2.23"/><circle class="cls-7" cx="15.92" cy="11.35" r="2.23"/><circle class="cls-8" cx="7.68" cy="18.8" r="2.23"/><circle class="cls-9" cx="20.66" cy="18.8" r="2.23"/><path class="cls-10" d="M32.19,14.05l-.29-.29a.57.57,0,0,0-.8,0l-6.92,6.92-2.92-2.49a.56.56,0,0,0-.79.06l-.27.31a.58.58,0,0,0,.06.8l3.62,3.09a.57.57,0,0,0,.8-.06l.17-.2,7.34-7.34A.57.57,0,0,0,32.19,14.05Z"/><path class="cls-11" d="M26.67,24.2v2.35a2,2,0,0,1-1,1.69l-8.78,5.11a1.92,1.92,0,0,1-2,0L3.68,26.45a1.94,1.94,0,0,1-.94-1.66V11.66A2,2,0,0,1,3.7,10L14.92,3.34a2,2,0,0,1,2,0l8.81,5.22a1.93,1.93,0,0,1,1,1.67v5.5l2.12-2a2,2,0,0,0,.63-1.43V8.44a1.94,1.94,0,0,0-1-1.69L17.17.26a1.94,1.94,0,0,0-2,0L1,8.46a1.94,1.94,0,0,0-1,1.69v16.1a1.93,1.93,0,0,0,1,1.67l14.27,8.49a2,2,0,0,0,2,0l11.25-6.37a1.94,1.94,0,0,0,1-1.69V20.81l-2.12,2A1.92,1.92,0,0,0,26.67,24.2Z"/></svg>